<svg width="229" height="160" viewBox="0 0 229 160" fill="none" xmlns="http://www.w3.org/2000/svg">
<path d="M11.2981 26.6221C9.22041 34.2697 10.4323 49.9769 11.298 67.1218L11.2981 104.31C11.2981 127.235 32.0583 134.263 47.8487 134.263H118.659C121.461 134.263 122.48 134.621 124.263 137.423C126.046 140.225 132.308 150.365 143.876 153.98C156.103 157.8 162.47 157.8 169.093 157.8C175.716 157.8 180.555 154.04 176.48 151.687C172.404 149.334 168.329 145.574 165.527 142.008C162.725 138.442 162.47 133.093 162.98 130.037C163.51 126.858 168.329 127.744 171.895 127.744C180.171 127.744 204.019 127.613 209.338 127.613C232.772 127.613 226.131 88.0235 226.131 69.2161V22.9769C226.131 5.83187 209.338 11.3392 199.659 11.3392C186.672 11.3391 164.838 11.3391 146.424 11.3391L125.282 11.3392H33.8394C20.6461 11.3392 13.8952 17.0625 11.2981 26.6221Z" fill="black" stroke="black" stroke-width="4"/>
<path d="M3.14722 18.4712C1.06953 26.1188 2.28146 41.826 3.14716 58.9709L3.14722 96.1593C3.14722 119.084 23.9074 126.112 39.6978 126.112H114.584C117.386 126.112 118.405 126.471 120.188 129.272C121.971 132.074 128.593 145.544 139.801 150.159C152.791 155.508 163.999 155.425 167.31 155.763C171.131 156.152 175.716 154.489 170.112 150.159C164.508 145.829 161.753 143.536 159.159 138.187C156.566 132.838 156.357 125.451 156.867 122.395C157.396 119.217 160.178 119.593 163.744 119.593C172.02 119.593 195.868 119.462 201.187 119.462C224.621 119.462 217.98 79.8727 217.98 61.0652V14.826C217.98 -2.31901 201.187 3.18833 191.508 3.18828C178.521 3.18821 156.687 3.18823 138.273 3.18826L117.131 3.18828H25.6885C12.4952 3.18828 5.74433 8.9116 3.14722 18.4712Z" fill="white" stroke="black" stroke-width="4"/>
</svg>
